<mxfile host="65bd71144e">
    <diagram id="XzfI169kS8xXwwKBQOCa" name="Page-1">
        <mxGraphModel dx="966" dy="704" grid="1" gridSize="10" guides="1" tooltips="1" connect="1" arrows="1" fold="1" page="1" pageScale="1" pageWidth="1600" pageHeight="900" math="0" shadow="0">
            <root>
                <mxCell id="0"/>
                <mxCell id="1" parent="0"/>
                <mxCell id="121" value="" style="group" vertex="1" connectable="0" parent="1">
                    <mxGeometry x="75" y="10" width="605" height="90.00000000000011" as="geometry"/>
                </mxCell>
                <mxCell id="115" value="" style="group" vertex="1" connectable="0" parent="121">
                    <mxGeometry x="5" y="30.000000000000114" width="600" height="60" as="geometry"/>
                </mxCell>
                <mxCell id="85" value="&lt;u style=&quot;font-size: 12px;&quot;&gt;MID&lt;/u&gt;" style="rounded=0;whiteSpace=wrap;html=1;fontSize=12;" vertex="1" parent="115">
                    <mxGeometry width="120" height="60" as="geometry"/>
                </mxCell>
                <mxCell id="86" value="MEDICAL_NAME" style="rounded=0;whiteSpace=wrap;html=1;fontSize=12;" vertex="1" parent="115">
                    <mxGeometry x="120" width="120" height="60" as="geometry"/>
                </mxCell>
                <mxCell id="87" value="OWNER_NAME" style="rounded=0;whiteSpace=wrap;html=1;fontSize=12;" vertex="1" parent="115">
                    <mxGeometry x="240" width="120" height="60" as="geometry"/>
                </mxCell>
                <mxCell id="88" value="PHONE_NO" style="rounded=0;whiteSpace=wrap;html=1;fontSize=12;" vertex="1" parent="115">
                    <mxGeometry x="360" width="120" height="60" as="geometry"/>
                </mxCell>
                <mxCell id="89" value="ADDRESS" style="rounded=0;whiteSpace=wrap;html=1;fontSize=12;" vertex="1" parent="115">
                    <mxGeometry x="480" width="120" height="60" as="geometry"/>
                </mxCell>
                <mxCell id="120" value="POSTS" style="text;html=1;align=center;verticalAlign=middle;resizable=0;points=[];autosize=1;strokeColor=none;fillColor=none;fontSize=12;" vertex="1" parent="121">
                    <mxGeometry width="60" height="30" as="geometry"/>
                </mxCell>
                <mxCell id="123" value="" style="group" vertex="1" connectable="0" parent="1">
                    <mxGeometry x="80" y="120" width="720" height="90.00000000000011" as="geometry"/>
                </mxCell>
                <mxCell id="116" value="" style="group" vertex="1" connectable="0" parent="123">
                    <mxGeometry y="30.000000000000114" width="720" height="60" as="geometry"/>
                </mxCell>
                <mxCell id="91" value="&lt;u style=&quot;font-size: 12px;&quot;&gt;MID&lt;/u&gt;" style="rounded=0;whiteSpace=wrap;html=1;fontSize=12;" vertex="1" parent="116">
                    <mxGeometry width="120" height="60" as="geometry"/>
                </mxCell>
                <mxCell id="92" value="NAME" style="rounded=0;whiteSpace=wrap;html=1;fontSize=12;" vertex="1" parent="116">
                    <mxGeometry x="120" width="120" height="60" as="geometry"/>
                </mxCell>
                <mxCell id="93" value="&lt;u&gt;MEDICINES&lt;/u&gt;" style="rounded=0;whiteSpace=wrap;html=1;fontSize=12;" vertex="1" parent="116">
                    <mxGeometry x="240" width="120" height="60" as="geometry"/>
                </mxCell>
                <mxCell id="94" value="&lt;u&gt;PRODUCTS&lt;/u&gt;" style="rounded=0;whiteSpace=wrap;html=1;fontSize=12;" vertex="1" parent="116">
                    <mxGeometry x="360" width="120" height="60" as="geometry"/>
                </mxCell>
                <mxCell id="95" value="EMAIL" style="rounded=0;whiteSpace=wrap;html=1;fontSize=12;" vertex="1" parent="116">
                    <mxGeometry x="480" width="120" height="60" as="geometry"/>
                </mxCell>
                <mxCell id="96" value="AMOUNT" style="rounded=0;whiteSpace=wrap;html=1;fontSize=12;" vertex="1" parent="116">
                    <mxGeometry x="600" width="120" height="60" as="geometry"/>
                </mxCell>
                <mxCell id="122" value="MEDICINES" style="text;html=1;align=center;verticalAlign=middle;resizable=0;points=[];autosize=1;strokeColor=none;fillColor=none;fontSize=12;" vertex="1" parent="123">
                    <mxGeometry width="90" height="30" as="geometry"/>
                </mxCell>
                <mxCell id="137" value="" style="group" vertex="1" connectable="0" parent="1">
                    <mxGeometry x="80" y="240" width="480" height="90.00000000000011" as="geometry"/>
                </mxCell>
                <mxCell id="117" value="" style="group" vertex="1" connectable="0" parent="137">
                    <mxGeometry y="30.000000000000114" width="480" height="60" as="geometry"/>
                </mxCell>
                <mxCell id="97" value="&lt;u style=&quot;font-size: 12px;&quot;&gt;ID&lt;/u&gt;" style="rounded=0;whiteSpace=wrap;html=1;fontSize=12;" vertex="1" parent="117">
                    <mxGeometry width="120" height="60" as="geometry"/>
                </mxCell>
                <mxCell id="98" value="&lt;u&gt;MID&lt;/u&gt;" style="rounded=0;whiteSpace=wrap;html=1;fontSize=12;" vertex="1" parent="117">
                    <mxGeometry x="120" width="120" height="60" as="geometry"/>
                </mxCell>
                <mxCell id="99" value="ACTION" style="rounded=0;whiteSpace=wrap;html=1;fontSize=12;" vertex="1" parent="117">
                    <mxGeometry x="240" width="120" height="60" as="geometry"/>
                </mxCell>
                <mxCell id="100" value="DATE" style="rounded=0;whiteSpace=wrap;html=1;fontSize=12;" vertex="1" parent="117">
                    <mxGeometry x="360" width="120" height="60" as="geometry"/>
                </mxCell>
                <mxCell id="134" value="LOGS" style="text;html=1;align=center;verticalAlign=middle;resizable=0;points=[];autosize=1;strokeColor=none;fillColor=none;fontSize=12;" vertex="1" parent="137">
                    <mxGeometry width="60" height="30" as="geometry"/>
                </mxCell>
                <mxCell id="138" value="" style="group" vertex="1" connectable="0" parent="1">
                    <mxGeometry x="80" y="360" width="240" height="90.00000000000011" as="geometry"/>
                </mxCell>
                <mxCell id="118" value="" style="group" vertex="1" connectable="0" parent="138">
                    <mxGeometry y="30.000000000000114" width="240" height="60" as="geometry"/>
                </mxCell>
                <mxCell id="103" value="&lt;u style=&quot;font-size: 12px;&quot;&gt;SNO&lt;/u&gt;" style="rounded=0;whiteSpace=wrap;html=1;fontSize=12;" vertex="1" parent="118">
                    <mxGeometry width="120" height="60" as="geometry"/>
                </mxCell>
                <mxCell id="104" value="&lt;u&gt;MEDICINES&lt;/u&gt;" style="rounded=0;whiteSpace=wrap;html=1;fontSize=12;" vertex="1" parent="118">
                    <mxGeometry x="120" width="120" height="60" as="geometry"/>
                </mxCell>
                <mxCell id="135" value="ADDMP" style="text;html=1;align=center;verticalAlign=middle;resizable=0;points=[];autosize=1;strokeColor=none;fillColor=none;fontSize=12;" vertex="1" parent="138">
                    <mxGeometry x="-5" width="70" height="30" as="geometry"/>
                </mxCell>
                <mxCell id="139" value="" style="group" vertex="1" connectable="0" parent="1">
                    <mxGeometry x="80" y="470" width="240" height="90.00000000000011" as="geometry"/>
                </mxCell>
                <mxCell id="119" value="" style="group" vertex="1" connectable="0" parent="139">
                    <mxGeometry y="30.000000000000114" width="240" height="60" as="geometry"/>
                </mxCell>
                <mxCell id="109" value="&lt;u style=&quot;font-size: 12px;&quot;&gt;SNO&lt;/u&gt;" style="rounded=0;whiteSpace=wrap;html=1;fontSize=12;" vertex="1" parent="119">
                    <mxGeometry width="120" height="60" as="geometry"/>
                </mxCell>
                <mxCell id="110" value="&lt;u&gt;PRODUCT&lt;/u&gt;" style="rounded=0;whiteSpace=wrap;html=1;fontSize=12;" vertex="1" parent="119">
                    <mxGeometry x="120" width="120" height="60" as="geometry"/>
                </mxCell>
                <mxCell id="136" value="ADDPD" style="text;html=1;align=center;verticalAlign=middle;resizable=0;points=[];autosize=1;strokeColor=none;fillColor=none;fontSize=12;" vertex="1" parent="139">
                    <mxGeometry x="-5" width="70" height="30" as="geometry"/>
                </mxCell>
                <mxCell id="141" style="edgeStyle=orthogonalEdgeStyle;html=1;entryX=0.5;entryY=1;entryDx=0;entryDy=0;fontSize=12;" edge="1" parent="1" source="98" target="91">
                    <mxGeometry relative="1" as="geometry"/>
                </mxCell>
                <mxCell id="142" style="edgeStyle=orthogonalEdgeStyle;html=1;entryX=0;entryY=0.5;entryDx=0;entryDy=0;fontSize=12;elbow=vertical;exitX=0;exitY=0.5;exitDx=0;exitDy=0;" edge="1" parent="1" source="91" target="85">
                    <mxGeometry relative="1" as="geometry">
                        <Array as="points">
                            <mxPoint x="40" y="180"/>
                            <mxPoint x="40" y="70"/>
                        </Array>
                    </mxGeometry>
                </mxCell>
                <mxCell id="143" style="edgeStyle=orthogonalEdgeStyle;html=1;fontSize=12;elbow=vertical;" edge="1" parent="1" source="93" target="104">
                    <mxGeometry relative="1" as="geometry">
                        <Array as="points">
                            <mxPoint x="380" y="250"/>
                            <mxPoint x="600" y="250"/>
                            <mxPoint x="600" y="360"/>
                            <mxPoint x="260" y="360"/>
                        </Array>
                    </mxGeometry>
                </mxCell>
                <mxCell id="144" style="edgeStyle=orthogonalEdgeStyle;html=1;fontSize=12;elbow=vertical;" edge="1" parent="1" source="94" target="110">
                    <mxGeometry relative="1" as="geometry">
                        <Array as="points">
                            <mxPoint x="500" y="230"/>
                            <mxPoint x="640" y="230"/>
                            <mxPoint x="640" y="470"/>
                            <mxPoint x="260" y="470"/>
                        </Array>
                    </mxGeometry>
                </mxCell>
            </root>
        </mxGraphModel>
    </diagram>
</mxfile>